<svg id="Camada_1" data-name="Camada 1" xmlns="http://www.w3.org/2000/svg" viewBox="0 0 600 600"><defs><style>.cls-1{fill:#4a45bd;}.cls-2{fill:#b07af7;}.cls-3{fill:#73adff;}.cls-4{font-size:44.01px;fill:#b2b2b2;font-family:Coves-Light, Coves;font-weight:300;}.cls-5{letter-spacing:0.04em;}.cls-6{letter-spacing:0.03em;}.cls-7{letter-spacing:0.05em;}.cls-8{letter-spacing:0.04em;}</style></defs><polygon class="cls-1" points="148.2 286.77 163.04 278.83 198.31 254.53 207.56 271.51 166.42 287.21 152.11 294.82 115.74 318.76 107.5 301.75 148.2 286.77"/><polygon class="cls-2" points="162.67 294.07 147.64 286.48 107.49 271.58 116.08 254.25 152.56 278.9 167.01 286.25 207.5 302.25 198.31 318.77 162.67 294.07"/><polygon class="cls-3" points="153.64 294.78 153.21 277.94 147.33 235.53 166.66 234.88 162.22 278.69 162.59 294.89 167.67 338.14 148.76 337.86 153.64 294.78"/><path d="M275.26,275.68A31.29,31.29,0,0,1,303,303.1a31.37,31.37,0,0,1-1.37,13.45,30.27,30.27,0,0,1-6.48,11.09,31.25,31.25,0,0,1-47.7-1.52V337a.9.9,0,0,1-1,1h-4.74a.9.9,0,0,1-1-1V235.89a.9.9,0,0,1,1-1h4.74a.9.9,0,0,1,1,1v51.45a30.49,30.49,0,0,1,12.08-9.28A31,31,0,0,1,275.26,275.68Zm-3.38,55.55A24.55,24.55,0,1,0,254.61,324,23.63,23.63,0,0,0,271.88,331.23Z"/><path d="M312.31,328.76a31.22,31.22,0,1,1,44.11-44.18,31.22,31.22,0,1,1-44.11,44.18Zm4.76-39.36a24.4,24.4,0,1,0,17.33-7.2A23.47,23.47,0,0,0,317.07,289.4Z"/><path d="M374.77,328.76a31.22,31.22,0,1,1,44.11-44.18,31.22,31.22,0,1,1-44.11,44.18Zm4.75-39.36a24.4,24.4,0,1,0,17.34-7.2A23.5,23.5,0,0,0,379.52,289.4Z"/><path d="M453.56,285.9a1,1,0,0,1-1.37.07,8.72,8.72,0,0,0-1.37-1,10.48,10.48,0,0,0-1.73-1.08A19.38,19.38,0,0,0,444,282a26.61,26.61,0,0,0-3.38-.43h-1.87a8.48,8.48,0,0,0-1.08.07h-.43l-.43.07a14.43,14.43,0,0,0-3.82.93,7.54,7.54,0,0,0-3.09,2,6.55,6.55,0,0,0-1.8,3.17l-.14.5-.08.5q-.06.72-.06,1.08l-.08.58v-.08l.08.22v1l.14.43a1.08,1.08,0,0,0,.07.36l.14.5.15.44.21.43.22.43.29.43.36.43.36.43a16.09,16.09,0,0,0,3.81,2.95q1.88,1.08,5,2.52l.72.29.79.36,1.37.65,2.73,1.15a56.26,56.26,0,0,1,5.69,3,22.06,22.06,0,0,1,5.32,4.53,14,14,0,0,1,3.31,6.62l.21.94a7.75,7.75,0,0,1,.08.93l.07.87v1.73a4.53,4.53,0,0,0-.07.79l-.14.93-.15.94a15.23,15.23,0,0,1-2.88,6.4,15.43,15.43,0,0,1-5.18,4.25,20.93,20.93,0,0,1-5.61,1.94,34.2,34.2,0,0,1-5.26.65h-1.36l-1.08-.07c-.29,0-.67,0-1.15-.08h-.65l-.58-.07c-1.34-.19-2.8-.48-4.38-.86a30.56,30.56,0,0,1-6.62-2.81,19.7,19.7,0,0,1-2.74-1.72c-.62-.48-1.2-.94-1.73-1.37a.92.92,0,0,1,0-1.51l3.46-3.31a.91.91,0,0,1,1.36-.08,7.31,7.31,0,0,0,1.16.94,16.31,16.31,0,0,0,1.87,1.22,22.39,22.39,0,0,0,5,2.09,27.61,27.61,0,0,0,3.31.72l.43.07h.43a6.73,6.73,0,0,0,1,.07l1.08.08h.43l.51-.08a27.62,27.62,0,0,0,4.1-.36,14.71,14.71,0,0,0,3.89-1.36,8.28,8.28,0,0,0,4.68-6.12l.06-.5.08-.43a2.16,2.16,0,0,0,.07-.65v-.72l.07-.22v0l-.07-.28v-.51a3.06,3.06,0,0,0-.07-.58l-.08-.5a8.6,8.6,0,0,0-1.86-3.81q-2.44-2.88-8.78-5.83l-2.81-1.22-1.37-.65-.57-.29-.72-.29a55.78,55.78,0,0,1-5.69-2.87,22.83,22.83,0,0,1-5.39-4.25,4,4,0,0,1-.58-.72l-.57-.72a11.47,11.47,0,0,1-.94-1.66l-.43-.86a4.13,4.13,0,0,1-.29-.86,15.53,15.53,0,0,1-.5-1.94l-.15-1v-.65l-.07-.36v-.58l.07-.86a11.62,11.62,0,0,1,.15-1.65l.14-.87.22-.86a13,13,0,0,1,3.38-6,16.07,16.07,0,0,1,5.32-3.46,26,26,0,0,1,5.33-1.29h.72l.64-.07c.48,0,.87-.08,1.16-.08h2.37a29.4,29.4,0,0,1,4.39.58,27,27,0,0,1,6.77,2.52c.81.43,1.58.89,2.3,1.37.52.38,1,.79,1.58,1.22a4.75,4.75,0,0,1,.57.5.85.85,0,0,1,0,1.44Z"/><path d="M490.05,333.6c.43.58.36,1-.22,1.37a17,17,0,0,1-9.64,3.17,13.77,13.77,0,0,1-6.33-1.51,14.28,14.28,0,0,1-6.12-5.91,19,19,0,0,1-2.16-9.13V282.44h-8.7a.89.89,0,0,1-1-1v-4.82a.88.88,0,0,1,1-1h8.7l-.07-17.78a.89.89,0,0,1,1-1h4.82a.89.89,0,0,1,1,1v17.78h9.86a.88.88,0,0,1,1,1v4.82a.88.88,0,0,1-1,1h-9.86v39.15q0,6.69,4.53,9,4.11,2.09,8.92-1.08a.92.92,0,0,1,1.37.22Z"/><text class="cls-4" transform="translate(372.4 367.59)">re<tspan class="cls-5" x="32.51" y="0">p</tspan><tspan class="cls-6" x="57.14" y="0">o</tspan><tspan class="cls-7" x="79.17" y="0">r</tspan><tspan class="cls-8" x="93.09" y="0">t</tspan><tspan x="105.43" y="0">s</tspan></text></svg>